<?xml version="1.0" standalone="no"?>
<!DOCTYPE svg PUBLIC "-//W3C//DTD SVG 20010904//EN"
 "http://www.w3.org/TR/2001/REC-SVG-20010904/DTD/svg10.dtd">
<svg version="1.0" xmlns="http://www.w3.org/2000/svg"
 width="289.000000pt" height="170.000000pt" viewBox="0 0 289.000000 170.000000"
 preserveAspectRatio="xMidYMid meet">

<g transform="translate(0.000000,170.000000) scale(0.100000,-0.100000)"
fill="#000000" stroke="none">
<path d="M2062 1635 c-57 -32 -69 -35 -146 -35 -88 0 -111 -10 -104 -47 2 -14
16 -19 58 -23 50 -5 55 -7 53 -28 -2 -14 52 -130 132 -287 90 -175 135 -274
135 -295 0 -35 -14 -66 -114 -248 -37 -67 -78 -130 -91 -138 -20 -13 -59 -15
-244 -12 -218 3 -220 3 -246 28 -41 38 -47 57 -47 134 -1 65 3 78 40 146 23
41 51 92 62 113 12 22 19 45 16 53 -5 12 -110 14 -681 14 -616 0 -676 -1 -682
-16 -3 -9 -2 -24 4 -33 9 -14 43 -16 268 -19 170 -1 263 -6 272 -13 16 -14 17
-51 1 -67 -8 -8 -56 -12 -149 -12 -146 0 -168 -7 -154 -50 7 -21 17 -24 105
-21 90 3 139 -50 89 -95 -19 -17 -42 -20 -207 -24 -170 -5 -187 -7 -190 -23
-9 -47 -8 -47 463 -47 392 0 444 -2 456 -16 9 -11 10 -20 2 -32 -9 -15 -37
-18 -195 -22 -204 -6 -210 -7 -229 -70 -9 -30 -8 -42 5 -68 9 -17 25 -36 36
-42 16 -9 438 -13 1176 -10 159 0 186 12 214 95 49 144 123 235 235 291 57 27
69 29 214 34 l153 5 -43 42 c-69 68 -137 96 -247 101 -77 4 -92 7 -88 19 20
52 16 63 -80 251 -110 217 -115 242 -45 242 21 0 44 6 50 14 8 9 11 52 9 127
l-3 114 -100 3 c-98 2 -101 1 -163 -33z"/>
<path d="M777 1276 c-12 -13 -38 -54 -57 -90 -58 -108 -90 -101 445 -104 330
-1 462 1 471 9 27 22 11 109 -24 135 -13 10 -75 13 -252 14 l-235 0 -35 30
c-35 30 -35 30 -163 30 -123 0 -129 -1 -150 -24z"/>
<path d="M47 1003 c-13 -12 -7 -51 9 -57 44 -17 81 7 69 44 -5 15 -15 20 -39
20 -18 0 -36 -3 -39 -7z"/>
<path d="M270 835 c-6 -8 -9 -23 -5 -34 11 -37 89 -37 100 1 9 27 -12 48 -50
48 -18 0 -38 -7 -45 -15z"/>
<path d="M2473 668 c-21 -10 -21 -11 -5 -45 12 -25 21 -33 35 -29 32 8 111
-22 145 -55 62 -61 67 -170 10 -235 -42 -48 -78 -64 -141 -64 -153 0 -230 176
-128 293 l29 32 -18 35 -18 34 -45 -49 c-29 -31 -57 -76 -76 -121 -31 -78 -30
-118 4 -185 19 -36 93 -108 123 -120 12 -5 22 -12 22 -16 0 -8 -1460 -7 -1468
1 -2 3 13 14 35 24 47 25 103 81 82 84 -8 0 -76 2 -151 3 -137 1 -138 1 -174
31 -68 55 -93 142 -60 207 l15 27 -69 0 c-80 0 -80 0 -80 -103 1 -107 48 -193
136 -248 19 -12 34 -23 32 -24 -2 -2 -59 -7 -128 -10 -69 -4 -128 -9 -132 -12
-12 -7 -9 -38 4 -51 9 -9 283 -12 1169 -12 1039 0 1159 2 1173 16 18 18 19 23
6 44 -6 10 -35 16 -92 20 -71 5 -79 8 -58 17 42 18 109 88 131 138 57 128 22
270 -86 353 -39 30 -47 32 -121 31 -43 0 -89 -5 -101 -11z"/>
<path d="M44 646 c-14 -36 0 -51 49 -54 52 -3 77 9 77 38 0 22 -19 30 -76 30
-30 0 -46 -5 -50 -14z"/>
<path d="M2475 508 c-38 -22 -54 -52 -55 -96 0 -36 5 -49 31 -73 42 -40 92
-40 139 0 31 25 35 35 35 75 0 36 -6 51 -26 72 -30 29 -93 41 -124 22z"/>
<path d="M62 129 c-15 -6 -22 -17 -22 -33 0 -21 6 -26 35 -32 41 -7 67 9 63
39 -4 24 -44 38 -76 26z"/>
<path d="M217 123 c-14 -13 -6 -43 13 -53 30 -16 121 -9 133 11 22 35 2 49
-71 49 -38 0 -72 -3 -75 -7z"/>
</g>
</svg>
